<?xml version="1.0"?>
<svg xmlns="http://www.w3.org/2000/svg" xmlns:xlink="http://www.w3.org/1999/xlink" xmlns:svgjs="http://svgjs.com/svgjs" version="1.1" width="512" height="512" x="0" y="0" viewBox="0 0 512.002 512.002" style="enable-background:new 0 0 512 512" xml:space="preserve"><g><g xmlns="http://www.w3.org/2000/svg"><path d="m505.091 161.706c-4.304-2.757-9.718-3.131-14.364-.993l-48.022 22.118c-18.863-36.498-48.131-66.88-83.949-87.119 0 0 6.899-15.165 6.899-15.165 4.586-9.665-2.939-21.395-13.654-21.212h-192c-10.673-.193-18.268 11.551-13.653 21.212 0 0 6.898 15.162 6.898 15.162-35.882 20.259-65.085 50.568-83.956 87.118 0 0-48.014-22.114-48.014-22.114-9.647-4.634-21.471 2.872-21.275 13.625v122.671c0 51.799 27.831 96.208 74.447 118.794l57.772 27.991c12.311 5.964 25.346 8.875 38.231 8.875 39.836-.027 59.083-23.309 85.549-49.377 26.475 26.067 45.723 49.362 85.55 49.376 12.882.001 25.921-2.911 38.23-8.874l57.772-27.991c46.616-22.586 74.447-66.995 74.447-118.794v-122.671c.003-5.114-2.601-9.875-6.908-12.632zm-89.658 33.686-129.076 59.45 59.925-131.712c29.317 17.132 53.353 42.248 69.151 72.262zm-86.734-106.056-72.696 159.781-72.697-159.781zm-162.974 33.8 59.923 131.707-129.071-59.448c15.803-30.056 39.781-55.116 69.148-72.259zm316.277 173.873c-2.15 77.055-57.433 91.007-115.3 119.786-22.212 10.764-46.99 6.742-64.661-10.498 0 0-35.56-34.694-35.564-34.698-5.569-5.613-15.375-5.591-20.95 0 0 0-35.564 34.698-35.564 34.698-17.668 17.239-42.444 21.262-64.662 10.499 0 0-57.771-27.991-57.771-27.991-36.022-17.453-57.528-51.769-57.528-91.796v-99.248s219.724 101.201 219.733 101.205c3.924 1.81 8.615 1.808 12.542-.004 0 0 219.725-101.201 219.725-101.201z" fill="#f0f0f0" data-original="#000000" style=""/><path d="m314.384 336.784c14.29 31.132 54.09 45.127 84.738 29.73 31.558-15.165 44.895-53.179 29.73-84.737-3.451-9.025-12.354-14.457-21.648-10.124 0 0-87.2 41.904-87.2 41.904-9.163 4.534-10.526 14.89-5.62 23.227zm90.576-30.768c2.876 30.809-34.117 48.994-56.737 27.266z" fill="#f0f0f0" data-original="#000000" style=""/><path d="m189.999 313.557-87.2-41.904c-7.094-3.409-15.616-.756-19.52 6.077-18.309 31.704-5.474 73.059 27.604 88.785 30.875 15.035 69.527 2.136 84.739-29.732 4.889-8.335 3.563-18.682-5.623-23.226zm-66.123 25.917c-13.009-6.251-20.149-19.862-18.832-33.458l56.723 27.258c-9.793 9.523-24.881 12.453-37.891 6.2z" fill="#f0f0f0" data-original="#000000" style=""/></g></g></svg>
