<?xml version="1.0"?>
<svg xmlns="http://www.w3.org/2000/svg" xmlns:xlink="http://www.w3.org/1999/xlink" xmlns:svgjs="http://svgjs.com/svgjs" version="1.1" width="512" height="512" x="0" y="0" viewBox="0 0 511 511.99863" style="enable-background:new 0 0 512 512" xml:space="preserve" class=""><g><path xmlns="http://www.w3.org/2000/svg" d="m95.832031 190.664062c-3.839843 0-7.675781-1.464843-10.605469-4.390624-5.859374-5.859376-5.859374-15.355469 0-21.214844l3.734376-3.734375c10.921874-10.921875 12.191406-28.464844 2.96875-40.84375-.023438-.027344-.046876-.058594-.066407-.085938-18.1875-24.25-15.738281-58.699219 5.695313-80.132812l3.738281-3.738281c5.859375-5.859376 15.355469-5.855469 21.214844.003906 5.855469 5.859375 5.851562 15.359375-.007813 21.214844l-3.730468 3.730468c-10.925782 10.921875-12.191407 28.464844-2.972657 40.839844.023438.03125.046875.0625.070313.089844 18.1875 24.25 15.738281 58.699218-5.695313 80.132812l-3.738281 3.738282c-2.925781 2.929687-6.765625 4.390624-10.605469 4.390624zm0 0" fill="#f0f0f0" data-original="#ede9e8" style="" class=""/><path xmlns="http://www.w3.org/2000/svg" d="m184.199219 158.53125c-3.839844 0-7.679688-1.464844-10.609375-4.394531-5.855469-5.859375-5.851563-15.355469.007812-21.214844l3.730469-3.730469c10.945313-10.945312 12.195313-28.535156 2.910156-40.917968-.035156-.046876-.066406-.089844-.101562-.136719-18.085938-24.242188-15.609375-58.609375 5.785156-80.007813l3.734375-3.730468c5.855469-5.863282 15.351562-5.863282 21.210938-.007813 5.859374 5.855469 5.863281 15.351563.007812 21.210937l-3.742188 3.742188c-10.941406 10.941406-12.191406 28.535156-2.902343 40.917969.03125.042969.066406.089843.097656.132812 18.085937 24.242188 15.609375 58.613281-5.785156 80.007813l-3.738281 3.742187c-2.929688 2.925781-6.769532 4.386719-10.605469 4.386719zm0 0" fill="#f0f0f0" data-original="#ede9e8" style="" class=""/><path xmlns="http://www.w3.org/2000/svg" d="m192.234375 463.796875c-25.320313 0-50.007813-4.910156-73.382813-14.59375-23.378906-9.683594-44.304687-23.664063-62.199218-41.558594-17.894532-17.894531-31.875-38.816406-41.558594-62.195312-9.683594-23.378907-14.59375-48.0625-14.59375-73.367188v-32.148437c0-8.285156 6.714844-15 15-15h353.464844c8.285156 0 15 6.714844 15 15v32.132812c0 105.71875-86.011719 191.730469-191.730469 191.730469zm0 0" fill="#f0f0f0" data-original="#fdbf00" style="" class=""/><path xmlns="http://www.w3.org/2000/svg" d="m368.964844 512h-353.464844c-8.285156 0-15-6.71875-15-15 0-8.285156 6.714844-15 15-15h353.464844c8.285156 0 15 6.714844 15 15 0 8.28125-6.714844 15-15 15zm0 0" fill="#f0f0f0" data-original="#b32445" style="" class=""/><path xmlns="http://www.w3.org/2000/svg" d="m425.199219 367.398438h-8.03125c-8.285157 0-15-6.714844-15-15 0-8.28125 6.714843-15 15-15h8.03125c11.015625 0 21.367187-4.289063 29.15625-12.074219 7.789062-7.789063 12.078125-18.144531 12.078125-29.15625 0-22.738281-18.5-41.234375-41.234375-41.234375h-72.300781c-8.28125 0-15-6.714844-15-15s6.71875-15 15-15h72.300781c39.277343 0 71.234375 31.953125 71.234375 71.234375 0 19.023437-7.410156 36.914062-20.867188 50.367187-13.449218 13.457032-31.339844 20.863282-50.367187 20.863282zm0 0" fill="#f0f0f0" data-original="#ff9f00" style="" class=""/><path xmlns="http://www.w3.org/2000/svg" d="m368.964844 224.929688h-176.730469v238.867187c105.722656 0 191.730469-86.007813 191.730469-191.726563v-32.140624c0-8.28125-6.71875-15-15-15zm0 0" fill="#f0f0f0" data-original="#ff9f00" style="" class=""/><path xmlns="http://www.w3.org/2000/svg" d="m383.964844 497c0 8.277344-6.71875 15-15 15h-176.730469v-30h176.730469c8.28125 0 15 6.71875 15 15zm0 0" fill="#f0f0f0" data-original="#922338" style="" class=""/><path xmlns="http://www.w3.org/2000/svg" d="m268.664062 120.484375c9.222657 12.378906 7.953126 29.917969-2.96875 40.839844l-3.734374 3.734375c-5.859376 5.859375-5.859376 15.355468 0 21.214844 2.925781 2.929687 6.765624 4.394531 10.605468 4.394531 3.835938 0 7.675782-1.464844 10.605469-4.394531l3.734375-3.738282c21.433594-21.429687 23.882812-55.878906 5.695312-80.128906-.019531-.03125-.042968-.0625-.066406-.089844-9.222656-12.378906-7.953125-29.917968 2.96875-40.84375l3.730469-3.730468c5.859375-5.855469 5.863281-15.351563.007813-21.210938-5.855469-5.859375-15.355469-5.863281-21.210938-.007812l-3.742188 3.738281c-21.433593 21.433593-23.882812 55.882812-5.695312 80.132812.023438.027344.046875.058594.070312.089844zm0 0" fill="#f0f0f0" data-original="#ede9e8" style="" class=""/></g></svg>
