<?xml version="1.0"?>
<svg xmlns="http://www.w3.org/2000/svg" xmlns:xlink="http://www.w3.org/1999/xlink" xmlns:svgjs="http://svgjs.com/svgjs" version="1.1" width="512" height="512" x="0" y="0" viewBox="0 0 275.993 275.993" style="enable-background:new 0 0 512 512" xml:space="preserve"><g>
<g xmlns="http://www.w3.org/2000/svg">
	<g>
		<path d="M69.436,245.288c-16.446-13.453-31.628-11.443-31.628-11.443s-11.521-0.109-14.017,13.183    c-2.455,13.028,5.504,16.689,5.504,16.689c15.524,7.845,35.045,3.812,35.045,3.812c0.621-0.793,1.155-1.642,1.642-2.512    l10.708,2.512l0.591-2.833c22.618,5.069,42.403,6.897,59.062,6.897c12.246,0,22.805-0.974,31.576-2.325l0.574,2.46l26.601-3.718    c1.807,2.465,4.055,4.474,6.747,5.866c13.69,7.048,33.456-4.075,44.153-24.859c10.703-20.77,8.28-43.326-5.405-50.373    c-0.72-0.373-1.461-0.663-2.222-0.933c6.473-14.964,15.633-44.148,13.571-86.837C248.729,44.558,213.518,0,164.314,0    c-43.568,0-70.712,32.309-72.602,86.42c-1.207,34.906,5.799,67.365,8.87,79.735c-9.714,7.809-14.146,25.109-10.051,43.461    c5.085,22.804,21.386,38.582,36.407,35.236c15.027-3.355,23.08-24.56,17.994-47.369c-4.701-21.105-19.014-36.153-33.015-35.636    c-3.055-12.712-9.3-43.146-8.192-75.01c0.73-20.78,7.182-66.979,49.415-73.91c17.725,5.181,65.959,26.157,86.92,103.324    c1.19,42.634-9.533,70.306-14.825,81.19c-10.646,2.816-21.712,12.303-28.795,26.062c-5.293,10.278-7.369,20.977-6.463,30.032    l-24.829,3.843l0.917,3.93c-19.988,2.993-49.591,3.987-87.153-4.422l0.528-2.506l-9.916-3.087    C69.726,247.784,69.436,245.288,69.436,245.288z" fill="#f0f0f0" data-original="#000000" style=""/>
	</g>
</g>
<g xmlns="http://www.w3.org/2000/svg">
</g>
<g xmlns="http://www.w3.org/2000/svg">
</g>
<g xmlns="http://www.w3.org/2000/svg">
</g>
<g xmlns="http://www.w3.org/2000/svg">
</g>
<g xmlns="http://www.w3.org/2000/svg">
</g>
<g xmlns="http://www.w3.org/2000/svg">
</g>
<g xmlns="http://www.w3.org/2000/svg">
</g>
<g xmlns="http://www.w3.org/2000/svg">
</g>
<g xmlns="http://www.w3.org/2000/svg">
</g>
<g xmlns="http://www.w3.org/2000/svg">
</g>
<g xmlns="http://www.w3.org/2000/svg">
</g>
<g xmlns="http://www.w3.org/2000/svg">
</g>
<g xmlns="http://www.w3.org/2000/svg">
</g>
<g xmlns="http://www.w3.org/2000/svg">
</g>
<g xmlns="http://www.w3.org/2000/svg">
</g>
</g></svg>
