<?xml version="1.0"?>
<svg xmlns="http://www.w3.org/2000/svg" xmlns:xlink="http://www.w3.org/1999/xlink" xmlns:svgjs="http://svgjs.com/svgjs" version="1.1" width="512" height="512" x="0" y="0" viewBox="0 0 480 480" style="enable-background:new 0 0 512 512" xml:space="preserve" class=""><g><path xmlns="http://www.w3.org/2000/svg" d="m360 312c-13.253906 0-24-10.746094-24-24 0-4.417969-3.582031-8-8-8s-8 3.582031-8 8c0 13.253906-10.746094 24-24 24-4.417969 0-8 3.582031-8 8s3.582031 8 8 8c13.253906 0 24 10.746094 24 24 0 4.417969 3.582031 8 8 8s8-3.582031 8-8c0-13.253906 10.746094-24 24-24 4.417969 0 8-3.582031 8-8s-3.582031-8-8-8zm-32 16.246094c-2.332031-3.136719-5.109375-5.914063-8.246094-8.246094 3.136719-2.332031 5.914063-5.109375 8.246094-8.246094 2.332031 3.136719 5.109375 5.914063 8.246094 8.246094-3.136719 2.332031-5.914063 5.109375-8.246094 8.246094zm0 0" fill="#f0f0f0" data-original="#000000" style="" class=""/><path xmlns="http://www.w3.org/2000/svg" d="m472 0h-464c-4.417969 0-8 3.582031-8 8v464c0 4.417969 3.582031 8 8 8h464c4.417969 0 8-3.582031 8-8v-464c0-4.417969-3.582031-8-8-8zm-8 464h-448v-448h448zm0 0" fill="#f0f0f0" data-original="#000000" style="" class=""/><path xmlns="http://www.w3.org/2000/svg" d="m48 440h384c4.417969 0 8-3.582031 8-8v-384c0-4.417969-3.582031-8-8-8h-384c-4.417969 0-8 3.582031-8 8v384c0 4.417969 3.582031 8 8 8zm8-384h368v368h-368zm0 0" fill="#f0f0f0" data-original="#000000" style="" class=""/><path xmlns="http://www.w3.org/2000/svg" d="m157.351562 90.054688c-3.28125-2.953126-8.339843-2.6875-11.296874.59375l-72 80c-1.976563 2.113281-2.660157 5.132812-1.785157 7.890624.875 2.761719 3.175781 4.832032 6.011719 5.414063s5.769531-.410156 7.664062-2.601563l72-80c2.953126-3.28125 2.6875-8.339843-.59375-11.296874zm0 0" fill="#f0f0f0" data-original="#000000" style="" class=""/><path xmlns="http://www.w3.org/2000/svg" d="m261.382812 90.078125c-3.269531-2.972656-8.328124-2.734375-11.304687.539063l-160 176c-2.972656 3.269531-2.730469 8.328124.539063 11.304687 3.269531 2.972656 8.328124 2.730469 11.304687-.539063l160-176c2.972656-3.269531 2.734375-8.328124-.539063-11.304687zm0 0" fill="#f0f0f0" data-original="#000000" style="" class=""/><path xmlns="http://www.w3.org/2000/svg" d="m354.34375 114.34375-240 240c-2.078125 2.007812-2.914062 4.984375-2.179688 7.78125.730469 2.796875 2.914063 4.980469 5.710938 5.710938 2.796875.734374 5.773438-.101563 7.78125-2.179688l240-240c3.03125-3.140625 2.988281-8.128906-.097656-11.214844-3.085938-3.085937-8.074219-3.128906-11.214844-.097656zm0 0" fill="#f0f0f0" data-original="#000000" style="" class=""/></g></svg>
